<mxfile host="app.diagrams.net" modified="2021-11-17T04:52:48.301Z" agent="5.0 (Windows NT 10.0; Win64; x64) AppleWebKit/537.36 (KHTML, like Gecko) Chrome/95.0.4638.69 Safari/537.36" etag="-ufB2-Q1Xwf5-fl_xZ2G" version="15.7.4" type="github">
  <diagram id="7AULFHyz5qsApN5HjDMf" name="Page-1">
    <mxGraphModel dx="1038" dy="585" grid="1" gridSize="10" guides="1" tooltips="1" connect="1" arrows="1" fold="1" page="1" pageScale="1" pageWidth="1169" pageHeight="827" math="0" shadow="0">
      <root>
        <mxCell id="0" />
        <mxCell id="1" parent="0" />
        <mxCell id="ZnOyd_s6FaFxM5RJmOr9-26" style="edgeStyle=orthogonalEdgeStyle;orthogonalLoop=1;jettySize=auto;html=1;exitX=0;exitY=0.5;exitDx=0;exitDy=0;entryX=0;entryY=0.5;entryDx=0;entryDy=0;fontSize=18;" parent="1" source="ZnOyd_s6FaFxM5RJmOr9-1" target="ZnOyd_s6FaFxM5RJmOr9-11" edge="1">
          <mxGeometry relative="1" as="geometry" />
        </mxCell>
        <mxCell id="ZnOyd_s6FaFxM5RJmOr9-27" style="edgeStyle=orthogonalEdgeStyle;orthogonalLoop=1;jettySize=auto;html=1;exitX=0;exitY=0.5;exitDx=0;exitDy=0;entryX=0;entryY=0.5;entryDx=0;entryDy=0;fontSize=18;" parent="1" source="ZnOyd_s6FaFxM5RJmOr9-1" target="ZnOyd_s6FaFxM5RJmOr9-12" edge="1">
          <mxGeometry relative="1" as="geometry" />
        </mxCell>
        <mxCell id="ZnOyd_s6FaFxM5RJmOr9-28" style="edgeStyle=orthogonalEdgeStyle;orthogonalLoop=1;jettySize=auto;html=1;exitX=0;exitY=0.5;exitDx=0;exitDy=0;entryX=0;entryY=0.5;entryDx=0;entryDy=0;fontSize=18;" parent="1" source="ZnOyd_s6FaFxM5RJmOr9-1" target="ZnOyd_s6FaFxM5RJmOr9-13" edge="1">
          <mxGeometry relative="1" as="geometry" />
        </mxCell>
        <mxCell id="ZnOyd_s6FaFxM5RJmOr9-1" value="&lt;font style=&quot;font-size: 18px&quot;&gt;Kebaktian&lt;/font&gt;" style="whiteSpace=wrap;html=1;rounded=0;" parent="1" vertex="1">
          <mxGeometry x="50" y="90" width="120" height="40" as="geometry" />
        </mxCell>
        <mxCell id="ZnOyd_s6FaFxM5RJmOr9-2" value="&lt;font style=&quot;font-size: 18px&quot;&gt;Renungan&lt;/font&gt;" style="whiteSpace=wrap;html=1;rounded=0;" parent="1" vertex="1">
          <mxGeometry x="320" y="90" width="120" height="40" as="geometry" />
        </mxCell>
        <mxCell id="ZnOyd_s6FaFxM5RJmOr9-29" style="edgeStyle=orthogonalEdgeStyle;orthogonalLoop=1;jettySize=auto;html=1;exitX=0;exitY=0.5;exitDx=0;exitDy=0;entryX=0;entryY=0.5;entryDx=0;entryDy=0;fontSize=18;" parent="1" source="ZnOyd_s6FaFxM5RJmOr9-3" target="ZnOyd_s6FaFxM5RJmOr9-17" edge="1">
          <mxGeometry relative="1" as="geometry" />
        </mxCell>
        <mxCell id="ZnOyd_s6FaFxM5RJmOr9-30" style="edgeStyle=orthogonalEdgeStyle;orthogonalLoop=1;jettySize=auto;html=1;exitX=0;exitY=0.5;exitDx=0;exitDy=0;entryX=0;entryY=0.5;entryDx=0;entryDy=0;fontSize=18;" parent="1" source="ZnOyd_s6FaFxM5RJmOr9-3" target="ZnOyd_s6FaFxM5RJmOr9-18" edge="1">
          <mxGeometry relative="1" as="geometry" />
        </mxCell>
        <mxCell id="ZnOyd_s6FaFxM5RJmOr9-3" value="&lt;font style=&quot;font-size: 18px&quot;&gt;Kegiatan&lt;/font&gt;" style="whiteSpace=wrap;html=1;rounded=0;" parent="1" vertex="1">
          <mxGeometry x="590" y="90" width="120" height="40" as="geometry" />
        </mxCell>
        <mxCell id="ZnOyd_s6FaFxM5RJmOr9-34" style="edgeStyle=orthogonalEdgeStyle;orthogonalLoop=1;jettySize=auto;html=1;exitX=0;exitY=0.5;exitDx=0;exitDy=0;entryX=0;entryY=0.5;entryDx=0;entryDy=0;fontSize=18;" parent="1" source="ZnOyd_s6FaFxM5RJmOr9-4" target="ZnOyd_s6FaFxM5RJmOr9-21" edge="1">
          <mxGeometry relative="1" as="geometry" />
        </mxCell>
        <mxCell id="ZnOyd_s6FaFxM5RJmOr9-35" style="edgeStyle=orthogonalEdgeStyle;orthogonalLoop=1;jettySize=auto;html=1;exitX=0;exitY=0.5;exitDx=0;exitDy=0;entryX=0;entryY=0.5;entryDx=0;entryDy=0;fontSize=18;" parent="1" source="ZnOyd_s6FaFxM5RJmOr9-4" target="ZnOyd_s6FaFxM5RJmOr9-22" edge="1">
          <mxGeometry relative="1" as="geometry" />
        </mxCell>
        <mxCell id="ZnOyd_s6FaFxM5RJmOr9-36" style="edgeStyle=orthogonalEdgeStyle;orthogonalLoop=1;jettySize=auto;html=1;exitX=0;exitY=0.5;exitDx=0;exitDy=0;entryX=0;entryY=0.5;entryDx=0;entryDy=0;fontSize=18;" parent="1" source="ZnOyd_s6FaFxM5RJmOr9-4" target="ZnOyd_s6FaFxM5RJmOr9-31" edge="1">
          <mxGeometry relative="1" as="geometry" />
        </mxCell>
        <mxCell id="ZnOyd_s6FaFxM5RJmOr9-37" style="edgeStyle=orthogonalEdgeStyle;orthogonalLoop=1;jettySize=auto;html=1;exitX=0;exitY=0.5;exitDx=0;exitDy=0;entryX=0;entryY=0.5;entryDx=0;entryDy=0;fontSize=18;" parent="1" source="ZnOyd_s6FaFxM5RJmOr9-4" target="ZnOyd_s6FaFxM5RJmOr9-32" edge="1">
          <mxGeometry relative="1" as="geometry" />
        </mxCell>
        <mxCell id="ZnOyd_s6FaFxM5RJmOr9-38" style="edgeStyle=orthogonalEdgeStyle;orthogonalLoop=1;jettySize=auto;html=1;exitX=0;exitY=0.5;exitDx=0;exitDy=0;entryX=0;entryY=0.5;entryDx=0;entryDy=0;fontSize=18;" parent="1" source="ZnOyd_s6FaFxM5RJmOr9-4" target="ZnOyd_s6FaFxM5RJmOr9-33" edge="1">
          <mxGeometry relative="1" as="geometry" />
        </mxCell>
        <mxCell id="ZnOyd_s6FaFxM5RJmOr9-4" value="&lt;font style=&quot;font-size: 18px&quot;&gt;Persekutuan&lt;/font&gt;" style="whiteSpace=wrap;html=1;rounded=0;" parent="1" vertex="1">
          <mxGeometry x="860" y="90" width="120" height="40" as="geometry" />
        </mxCell>
        <mxCell id="ZnOyd_s6FaFxM5RJmOr9-44" style="edgeStyle=orthogonalEdgeStyle;orthogonalLoop=1;jettySize=auto;html=1;exitX=0;exitY=0.5;exitDx=0;exitDy=0;entryX=0;entryY=0.5;entryDx=0;entryDy=0;fontSize=18;" parent="1" source="ZnOyd_s6FaFxM5RJmOr9-5" target="ZnOyd_s6FaFxM5RJmOr9-39" edge="1">
          <mxGeometry relative="1" as="geometry" />
        </mxCell>
        <mxCell id="ZnOyd_s6FaFxM5RJmOr9-45" style="edgeStyle=orthogonalEdgeStyle;orthogonalLoop=1;jettySize=auto;html=1;exitX=0;exitY=0.5;exitDx=0;exitDy=0;entryX=0;entryY=0.5;entryDx=0;entryDy=0;fontSize=18;" parent="1" source="ZnOyd_s6FaFxM5RJmOr9-5" target="ZnOyd_s6FaFxM5RJmOr9-40" edge="1">
          <mxGeometry relative="1" as="geometry" />
        </mxCell>
        <mxCell id="ZnOyd_s6FaFxM5RJmOr9-46" style="edgeStyle=orthogonalEdgeStyle;orthogonalLoop=1;jettySize=auto;html=1;exitX=0;exitY=0.5;exitDx=0;exitDy=0;entryX=0;entryY=0.5;entryDx=0;entryDy=0;fontSize=18;" parent="1" source="ZnOyd_s6FaFxM5RJmOr9-5" target="ZnOyd_s6FaFxM5RJmOr9-41" edge="1">
          <mxGeometry relative="1" as="geometry" />
        </mxCell>
        <mxCell id="ZnOyd_s6FaFxM5RJmOr9-47" style="edgeStyle=orthogonalEdgeStyle;orthogonalLoop=1;jettySize=auto;html=1;exitX=0;exitY=0.5;exitDx=0;exitDy=0;entryX=0;entryY=0.5;entryDx=0;entryDy=0;fontSize=18;" parent="1" source="ZnOyd_s6FaFxM5RJmOr9-5" target="ZnOyd_s6FaFxM5RJmOr9-42" edge="1">
          <mxGeometry relative="1" as="geometry" />
        </mxCell>
        <mxCell id="ZnOyd_s6FaFxM5RJmOr9-5" value="&lt;font style=&quot;font-size: 18px&quot;&gt;Peribadahan&lt;/font&gt;" style="whiteSpace=wrap;html=1;rounded=0;" parent="1" vertex="1">
          <mxGeometry x="1130" y="90" width="120" height="40" as="geometry" />
        </mxCell>
        <mxCell id="ZnOyd_s6FaFxM5RJmOr9-51" style="edgeStyle=orthogonalEdgeStyle;orthogonalLoop=1;jettySize=auto;html=1;exitX=0;exitY=0.5;exitDx=0;exitDy=0;entryX=0;entryY=0.5;entryDx=0;entryDy=0;fontSize=18;" parent="1" source="ZnOyd_s6FaFxM5RJmOr9-6" target="ZnOyd_s6FaFxM5RJmOr9-48" edge="1">
          <mxGeometry relative="1" as="geometry" />
        </mxCell>
        <mxCell id="ZnOyd_s6FaFxM5RJmOr9-52" style="edgeStyle=orthogonalEdgeStyle;orthogonalLoop=1;jettySize=auto;html=1;exitX=0;exitY=0.5;exitDx=0;exitDy=0;entryX=0;entryY=0.5;entryDx=0;entryDy=0;fontSize=18;" parent="1" source="ZnOyd_s6FaFxM5RJmOr9-6" target="ZnOyd_s6FaFxM5RJmOr9-49" edge="1">
          <mxGeometry relative="1" as="geometry" />
        </mxCell>
        <mxCell id="ZnOyd_s6FaFxM5RJmOr9-53" style="edgeStyle=orthogonalEdgeStyle;orthogonalLoop=1;jettySize=auto;html=1;exitX=0;exitY=0.5;exitDx=0;exitDy=0;entryX=0;entryY=0.5;entryDx=0;entryDy=0;fontSize=18;" parent="1" source="ZnOyd_s6FaFxM5RJmOr9-6" target="ZnOyd_s6FaFxM5RJmOr9-50" edge="1">
          <mxGeometry relative="1" as="geometry" />
        </mxCell>
        <mxCell id="ZnOyd_s6FaFxM5RJmOr9-6" value="&lt;font style=&quot;font-size: 18px&quot;&gt;Oikmas&lt;/font&gt;" style="whiteSpace=wrap;html=1;rounded=0;" parent="1" vertex="1">
          <mxGeometry x="1400" y="90" width="120" height="40" as="geometry" />
        </mxCell>
        <mxCell id="ZnOyd_s6FaFxM5RJmOr9-61" style="edgeStyle=orthogonalEdgeStyle;orthogonalLoop=1;jettySize=auto;html=1;exitX=0;exitY=0.5;exitDx=0;exitDy=0;entryX=0;entryY=0.5;entryDx=0;entryDy=0;fontSize=18;" parent="1" source="ZnOyd_s6FaFxM5RJmOr9-7" target="ZnOyd_s6FaFxM5RJmOr9-54" edge="1">
          <mxGeometry relative="1" as="geometry" />
        </mxCell>
        <mxCell id="ZnOyd_s6FaFxM5RJmOr9-62" style="edgeStyle=orthogonalEdgeStyle;orthogonalLoop=1;jettySize=auto;html=1;exitX=0;exitY=0.5;exitDx=0;exitDy=0;entryX=0;entryY=0.5;entryDx=0;entryDy=0;fontSize=18;" parent="1" source="ZnOyd_s6FaFxM5RJmOr9-7" target="ZnOyd_s6FaFxM5RJmOr9-55" edge="1">
          <mxGeometry relative="1" as="geometry" />
        </mxCell>
        <mxCell id="ZnOyd_s6FaFxM5RJmOr9-63" style="edgeStyle=orthogonalEdgeStyle;orthogonalLoop=1;jettySize=auto;html=1;exitX=0;exitY=0.5;exitDx=0;exitDy=0;entryX=0;entryY=0.5;entryDx=0;entryDy=0;fontSize=18;" parent="1" source="ZnOyd_s6FaFxM5RJmOr9-7" target="ZnOyd_s6FaFxM5RJmOr9-56" edge="1">
          <mxGeometry relative="1" as="geometry" />
        </mxCell>
        <mxCell id="ZnOyd_s6FaFxM5RJmOr9-64" style="edgeStyle=orthogonalEdgeStyle;orthogonalLoop=1;jettySize=auto;html=1;exitX=0;exitY=0.5;exitDx=0;exitDy=0;entryX=0;entryY=0.5;entryDx=0;entryDy=0;fontSize=18;" parent="1" source="ZnOyd_s6FaFxM5RJmOr9-7" target="ZnOyd_s6FaFxM5RJmOr9-57" edge="1">
          <mxGeometry relative="1" as="geometry" />
        </mxCell>
        <mxCell id="ZnOyd_s6FaFxM5RJmOr9-65" style="edgeStyle=orthogonalEdgeStyle;orthogonalLoop=1;jettySize=auto;html=1;exitX=0;exitY=0.5;exitDx=0;exitDy=0;entryX=0;entryY=0.5;entryDx=0;entryDy=0;fontSize=18;" parent="1" source="ZnOyd_s6FaFxM5RJmOr9-7" target="ZnOyd_s6FaFxM5RJmOr9-58" edge="1">
          <mxGeometry relative="1" as="geometry" />
        </mxCell>
        <mxCell id="ZnOyd_s6FaFxM5RJmOr9-66" style="edgeStyle=orthogonalEdgeStyle;orthogonalLoop=1;jettySize=auto;html=1;exitX=0;exitY=0.5;exitDx=0;exitDy=0;entryX=0;entryY=0.5;entryDx=0;entryDy=0;fontSize=18;" parent="1" source="ZnOyd_s6FaFxM5RJmOr9-7" target="ZnOyd_s6FaFxM5RJmOr9-59" edge="1">
          <mxGeometry relative="1" as="geometry" />
        </mxCell>
        <mxCell id="ZnOyd_s6FaFxM5RJmOr9-7" value="&lt;font style=&quot;font-size: 18px&quot;&gt;Tentang Kami&lt;/font&gt;" style="whiteSpace=wrap;html=1;rounded=0;" parent="1" vertex="1">
          <mxGeometry x="1670" y="90" width="120" height="40" as="geometry" />
        </mxCell>
        <mxCell id="ZnOyd_s6FaFxM5RJmOr9-11" value="&lt;font style=&quot;font-size: 18px&quot;&gt;Jadwal Kebaktian&lt;/font&gt;" style="whiteSpace=wrap;html=1;rounded=0;" parent="1" vertex="1">
          <mxGeometry x="50" y="190" width="170" height="40" as="geometry" />
        </mxCell>
        <mxCell id="ZnOyd_s6FaFxM5RJmOr9-12" value="&lt;font style=&quot;font-size: 18px&quot;&gt;Lagu, Tema &amp;amp; Bacaan&lt;/font&gt;" style="whiteSpace=wrap;html=1;rounded=0;" parent="1" vertex="1">
          <mxGeometry x="50" y="240" width="200" height="40" as="geometry" />
        </mxCell>
        <mxCell id="ZnOyd_s6FaFxM5RJmOr9-13" value="&lt;font style=&quot;font-size: 18px&quot;&gt;Jadwal Pelayanan Ibadah&lt;/font&gt;" style="whiteSpace=wrap;html=1;rounded=0;" parent="1" vertex="1">
          <mxGeometry x="50" y="290" width="230" height="40" as="geometry" />
        </mxCell>
        <mxCell id="ZnOyd_s6FaFxM5RJmOr9-17" value="&lt;font style=&quot;font-size: 18px&quot;&gt;Acara GKI Palsigunung&lt;/font&gt;" style="whiteSpace=wrap;html=1;rounded=0;" parent="1" vertex="1">
          <mxGeometry x="585" y="190" width="200" height="40" as="geometry" />
        </mxCell>
        <mxCell id="ZnOyd_s6FaFxM5RJmOr9-18" value="&lt;font style=&quot;font-size: 18px&quot;&gt;Berita GKI Palsigunung&lt;/font&gt;" style="whiteSpace=wrap;html=1;rounded=0;" parent="1" vertex="1">
          <mxGeometry x="585" y="240" width="200" height="40" as="geometry" />
        </mxCell>
        <mxCell id="ZnOyd_s6FaFxM5RJmOr9-21" value="&lt;font style=&quot;font-size: 18px&quot;&gt;Pelayanan P.A.K&lt;/font&gt;" style="whiteSpace=wrap;html=1;rounded=0;" parent="1" vertex="1">
          <mxGeometry x="860" y="190" width="200" height="40" as="geometry" />
        </mxCell>
        <mxCell id="ZnOyd_s6FaFxM5RJmOr9-22" value="&lt;font style=&quot;font-size: 18px&quot;&gt;Keangotaan&lt;/font&gt;" style="whiteSpace=wrap;html=1;rounded=0;" parent="1" vertex="1">
          <mxGeometry x="860" y="240" width="200" height="40" as="geometry" />
        </mxCell>
        <mxCell id="ZnOyd_s6FaFxM5RJmOr9-31" value="&lt;font style=&quot;font-size: 18px&quot;&gt;Jadwal Baptis&lt;/font&gt;" style="whiteSpace=wrap;html=1;rounded=0;" parent="1" vertex="1">
          <mxGeometry x="860" y="290" width="200" height="40" as="geometry" />
        </mxCell>
        <mxCell id="ZnOyd_s6FaFxM5RJmOr9-32" value="&lt;font style=&quot;font-size: 18px&quot;&gt;Komisi Perlawatan&lt;/font&gt;" style="whiteSpace=wrap;html=1;rounded=0;" parent="1" vertex="1">
          <mxGeometry x="860" y="340" width="200" height="40" as="geometry" />
        </mxCell>
        <mxCell id="ZnOyd_s6FaFxM5RJmOr9-33" value="&lt;font style=&quot;font-size: 18px&quot;&gt;Pernikahan Gerejawi&lt;/font&gt;" style="whiteSpace=wrap;html=1;rounded=0;" parent="1" vertex="1">
          <mxGeometry x="860" y="393.5" width="200" height="40" as="geometry" />
        </mxCell>
        <mxCell id="ZnOyd_s6FaFxM5RJmOr9-39" value="&lt;font style=&quot;font-size: 18px&quot;&gt;Persiapan Pelayanan&lt;/font&gt;" style="whiteSpace=wrap;html=1;rounded=0;" parent="1" vertex="1">
          <mxGeometry x="1130" y="190" width="200" height="40" as="geometry" />
        </mxCell>
        <mxCell id="ZnOyd_s6FaFxM5RJmOr9-40" value="&lt;font style=&quot;font-size: 18px&quot;&gt;Kebaktian Lingkungan&lt;/font&gt;" style="whiteSpace=wrap;html=1;rounded=0;" parent="1" vertex="1">
          <mxGeometry x="1130" y="240" width="200" height="40" as="geometry" />
        </mxCell>
        <mxCell id="ZnOyd_s6FaFxM5RJmOr9-41" value="&lt;font style=&quot;font-size: 18px&quot;&gt;Jadwal SMM&lt;/font&gt;" style="whiteSpace=wrap;html=1;rounded=0;" parent="1" vertex="1">
          <mxGeometry x="1130" y="290" width="200" height="40" as="geometry" />
        </mxCell>
        <mxCell id="ZnOyd_s6FaFxM5RJmOr9-42" value="&lt;font style=&quot;font-size: 18px&quot;&gt;Persekutuan Doa Pagi&lt;/font&gt;" style="whiteSpace=wrap;html=1;rounded=0;" parent="1" vertex="1">
          <mxGeometry x="1130" y="340" width="200" height="40" as="geometry" />
        </mxCell>
        <mxCell id="ZnOyd_s6FaFxM5RJmOr9-48" value="&lt;font style=&quot;font-size: 18px&quot;&gt;Kotak Peduli&lt;/font&gt;" style="whiteSpace=wrap;html=1;rounded=0;" parent="1" vertex="1">
          <mxGeometry x="1400" y="190" width="200" height="40" as="geometry" />
        </mxCell>
        <mxCell id="ZnOyd_s6FaFxM5RJmOr9-49" value="&lt;font style=&quot;font-size: 18px&quot;&gt;Komisi Beasiswa&lt;/font&gt;" style="whiteSpace=wrap;html=1;rounded=0;" parent="1" vertex="1">
          <mxGeometry x="1400" y="240" width="200" height="40" as="geometry" />
        </mxCell>
        <mxCell id="ZnOyd_s6FaFxM5RJmOr9-50" value="&lt;font style=&quot;font-size: 18px&quot;&gt;Pelayanan Kesehatan&lt;/font&gt;" style="whiteSpace=wrap;html=1;rounded=0;" parent="1" vertex="1">
          <mxGeometry x="1400" y="290" width="200" height="40" as="geometry" />
        </mxCell>
        <mxCell id="ZnOyd_s6FaFxM5RJmOr9-54" value="&lt;font style=&quot;font-size: 18px&quot;&gt;Sejarah GKI Palsigunung&lt;/font&gt;" style="whiteSpace=wrap;html=1;rounded=0;" parent="1" vertex="1">
          <mxGeometry x="1670" y="190" width="230" height="40" as="geometry" />
        </mxCell>
        <mxCell id="ZnOyd_s6FaFxM5RJmOr9-55" value="&lt;font style=&quot;font-size: 18px&quot;&gt;Visi &amp;amp; Misi&lt;/font&gt;" style="whiteSpace=wrap;html=1;rounded=0;" parent="1" vertex="1">
          <mxGeometry x="1670" y="240" width="200" height="40" as="geometry" />
        </mxCell>
        <mxCell id="ZnOyd_s6FaFxM5RJmOr9-56" value="&lt;font style=&quot;font-size: 18px&quot;&gt;Pendeta&lt;/font&gt;" style="whiteSpace=wrap;html=1;rounded=0;" parent="1" vertex="1">
          <mxGeometry x="1670" y="290" width="200" height="40" as="geometry" />
        </mxCell>
        <mxCell id="ZnOyd_s6FaFxM5RJmOr9-70" style="edgeStyle=orthogonalEdgeStyle;orthogonalLoop=1;jettySize=auto;html=1;exitX=1;exitY=0.5;exitDx=0;exitDy=0;entryX=0;entryY=0.5;entryDx=0;entryDy=0;fontSize=18;" parent="1" source="ZnOyd_s6FaFxM5RJmOr9-57" target="ZnOyd_s6FaFxM5RJmOr9-67" edge="1">
          <mxGeometry relative="1" as="geometry" />
        </mxCell>
        <mxCell id="ZnOyd_s6FaFxM5RJmOr9-71" style="edgeStyle=orthogonalEdgeStyle;orthogonalLoop=1;jettySize=auto;html=1;exitX=1;exitY=0.5;exitDx=0;exitDy=0;entryX=0;entryY=0.5;entryDx=0;entryDy=0;fontSize=18;" parent="1" source="ZnOyd_s6FaFxM5RJmOr9-57" target="ZnOyd_s6FaFxM5RJmOr9-68" edge="1">
          <mxGeometry relative="1" as="geometry" />
        </mxCell>
        <mxCell id="ZnOyd_s6FaFxM5RJmOr9-57" value="&lt;font style=&quot;font-size: 18px&quot;&gt;Majelis Jemaat&lt;/font&gt;" style="whiteSpace=wrap;html=1;rounded=0;" parent="1" vertex="1">
          <mxGeometry x="1670" y="340" width="200" height="40" as="geometry" />
        </mxCell>
        <mxCell id="ZnOyd_s6FaFxM5RJmOr9-58" value="&lt;font style=&quot;font-size: 18px&quot;&gt;Staff &amp;amp; Tata Usaha&lt;/font&gt;" style="whiteSpace=wrap;html=1;rounded=0;" parent="1" vertex="1">
          <mxGeometry x="1670" y="390" width="200" height="40" as="geometry" />
        </mxCell>
        <mxCell id="ZnOyd_s6FaFxM5RJmOr9-59" value="&lt;font style=&quot;font-size: 18px&quot;&gt;Informasi Kontak&lt;/font&gt;" style="whiteSpace=wrap;html=1;rounded=0;" parent="1" vertex="1">
          <mxGeometry x="1670" y="440" width="200" height="40" as="geometry" />
        </mxCell>
        <mxCell id="ZnOyd_s6FaFxM5RJmOr9-67" value="&lt;font style=&quot;font-size: 18px&quot;&gt;Periode 2020 - 2021&lt;/font&gt;" style="whiteSpace=wrap;html=1;rounded=0;" parent="1" vertex="1">
          <mxGeometry x="1900" y="313.5" width="200" height="40" as="geometry" />
        </mxCell>
        <mxCell id="ZnOyd_s6FaFxM5RJmOr9-68" value="&lt;font style=&quot;font-size: 18px&quot;&gt;Periode 2021 - 2022&lt;/font&gt;" style="whiteSpace=wrap;html=1;rounded=0;" parent="1" vertex="1">
          <mxGeometry x="1900" y="366.5" width="200" height="40" as="geometry" />
        </mxCell>
      </root>
    </mxGraphModel>
  </diagram>
</mxfile>
